Coordinates
version=1
nRows=8
nColumns=63
inDegrees=yes

Units are S.I. units (second, meters, Newtons, ...)
If the header above contains a line with 'inDegrees', this indicates whether rotational values are in degrees (yes) or radians (no).

endheader
time	pelvis_tilt	pelvis_list	pelvis_rotation	pelvis_tx	pelvis_ty	pelvis_tz	hip_flexion_r	hip_adduction_r	hip_rotation_r	knee_angle_r	knee_angle_r_beta	ankle_angle_r	subtalar_angle_r	mtp_angle_r	hip_flexion_l	hip_adduction_l	hip_rotation_l	knee_angle_l	knee_angle_l_beta	ankle_angle_l	subtalar_angle_l	mtp_angle_l	L5_S1_Flex_Ext	L5_S1_Lat_Bending	L5_S1_axial_rotation	L4_L5_Flex_Ext	L4_L5_Lat_Bending	L4_L5_axial_rotation	L3_L4_Flex_Ext	L3_L4_Lat_Bending	L3_L4_axial_rotation	L2_L3_Flex_Ext	L2_L3_Lat_Bending	L2_L3_axial_rotation	L1_L2_Flex_Ext	L1_L2_Lat_Bending	L1_L2_axial_rotation	L1_T12_Flex_Ext	L1_T12_Lat_Bending	L1_T12_axial_rotation	Abs_r3	Abs_r2	Abs_r1	Abs_t1	Abs_t2	neck_flexion	neck_bending	neck_rotation	arm_flex_r	arm_add_r	arm_rot_r	elbow_flex_r	pro_sup_r	wrist_flex_r	wrist_dev_r	arm_flex_l	arm_add_l	arm_rot_l	elbow_flex_l	pro_sup_l	wrist_flex_l	wrist_dev_l
0.000000	1.019704	-5.848481	88.222358	0.107149	0.591467	0.821113	-5.379049	-0.326579	16.764021	0.712725	0.012439	17.760760	-13.047083	0.000000	-5.194777	0.114371	0.265825	0.439329	0.007668	24.456350	-9.793479	0.000000	-0.150214	-0.250929	2.232254	-0.278963	-0.333735	2.371770	-0.246787	-0.610109	2.371770	-0.171680	-0.610109	1.953223	-0.139489	-0.511694	1.813707	-0.085833	-0.388689	1.674191	-1.072967	-2.838558	12.415130	0.000000	0.000000	1.299097	-1.963918	6.122020	10.176878	-5.883887	53.727032	44.315451	32.778506	-1.960340	15.193800	19.163321	-7.665347	63.300210	41.813600	63.780427	12.824513	5.755314
0.016949	1.640347	-5.710223	88.859331	0.106492	0.591571	0.820147	-5.528323	0.329900	17.297575	0.646793	0.011289	17.601045	-13.780399	0.000000	-5.368140	-0.565311	0.401930	0.430807	0.007519	24.604494	-9.281265	0.000000	-0.145286	-0.173295	2.288284	-0.269811	-0.230482	2.431302	-0.238691	-0.421349	2.431302	-0.166048	-0.421349	2.002249	-0.134913	-0.353382	1.859231	-0.083017	-0.268433	1.716213	-1.037765	-1.960344	12.726749	0.000000	0.000000	0.588592	-2.161162	5.857142	9.544447	-6.370804	55.505139	43.931838	33.514324	-2.402901	11.247286	19.532529	-7.205159	67.088867	40.174247	62.540639	13.932361	3.956327
0.033898	2.130877	-5.607143	89.342324	0.106090	0.591644	0.819457	-5.621333	0.853197	17.720292	0.594042	0.010368	17.536142	-14.343183	0.000000	-5.487357	-1.109074	0.380565	0.424506	0.007409	24.776724	-8.755265	0.000000	-0.142697	-0.113835	2.353064	-0.265002	-0.151401	2.500130	-0.234437	-0.276778	2.500130	-0.163088	-0.276778	2.058931	-0.132508	-0.232132	1.911864	-0.081537	-0.176330	1.764798	-1.019269	-1.287724	13.087035	0.000000	0.000000	0.023381	-2.323199	5.439960	8.943124	-6.728939	56.451817	43.750462	34.319622	-2.666359	8.304445	19.922750	-6.854272	70.162383	38.909224	61.700881	14.892369	2.521626
0.050847	2.503734	-5.535334	89.684910	0.105915	0.591688	0.819017	-5.664708	1.255547	18.044526	0.553501	0.009660	17.553460	-14.751654	0.000000	-5.558970	-1.529369	0.221889	0.420248	0.007335	24.968078	-8.222805	0.000000	-0.142184	-0.070684	2.424527	-0.264050	-0.094009	2.576060	-0.233594	-0.171860	2.576060	-0.162502	-0.171860	2.121461	-0.132032	-0.144138	1.969928	-0.081244	-0.109489	1.818395	-1.015606	-0.799588	13.484491	0.000000	0.000000	-0.405660	-2.452877	4.897158	8.375597	-6.971084	56.666003	43.746383	35.184010	-2.769063	6.264993	20.324286	-6.603341	72.571682	37.985080	61.236431	15.715383	1.417180
0.067797	2.771356	-5.490888	89.900661	0.105936	0.591705	0.818799	-5.665078	1.549185	18.282634	0.524198	0.009149	17.640407	-15.022028	0.000000	-5.589521	-1.838644	-0.053941	0.417858	0.007293	25.173597	-7.691208	0.000000	-0.143486	-0.041975	2.500607	-0.266468	-0.055826	2.656895	-0.235733	-0.102057	2.656895	-0.163990	-0.102057	2.188031	-0.133241	-0.085595	2.031743	-0.081988	-0.065019	1.875455	-1.024907	-0.474825	13.907625	0.000000	0.000000	-0.707655	-2.553048	4.255420	7.844554	-7.110031	56.246631	43.894663	36.097098	-2.729362	5.028646	20.727442	-6.443025	74.367688	37.368366	61.122567	16.412246	0.608956
0.084746	2.946182	-5.469898	90.003152	0.106125	0.591695	0.818776	-5.629074	1.746345	18.446973	0.505160	0.008817	17.784392	-15.170522	0.000000	-5.585550	-2.049349	-0.426767	0.417157	0.007281	25.388318	-7.167799	0.000000	-0.146341	-0.025841	2.579237	-0.271770	-0.034369	2.740439	-0.240424	-0.062831	2.740439	-0.167253	-0.062831	2.256832	-0.135892	-0.052696	2.095630	-0.083619	-0.040028	1.934428	-1.045299	-0.292322	14.344941	0.000000	0.000000	-0.891729	-2.626562	3.541429	7.352683	-7.158572	55.292640	44.170362	37.048495	-2.565602	4.495123	21.122521	-6.363979	75.601323	37.025635	61.334569	16.993804	0.062922
0.101695	3.040651	-5.468457	90.005955	0.106451	0.591661	0.818920	-5.563327	1.859264	18.549899	0.495416	0.008647	17.972823	-15.213354	0.000000	-5.553600	-2.173934	-0.876430	0.417971	0.007295	25.607282	-6.659903	0.000000	-0.150487	-0.020418	2.658350	-0.279469	-0.027156	2.824497	-0.247235	-0.049644	2.824497	-0.171991	-0.049644	2.326056	-0.139742	-0.041636	2.159910	-0.085988	-0.031627	1.993763	-1.074912	-0.230969	14.784946	0.000000	0.000000	-0.967005	-2.676270	2.781869	6.902674	-7.129497	53.902965	44.548540	38.027812	-2.296133	4.564141	21.499828	-6.356863	76.323512	36.923437	61.847714	17.470901	-0.254954
0.118644	3.067203	-5.482658	89.922644	0.106887	0.591603	0.819204	-5.474465	1.900175	18.603768	0.493993	0.008622	18.193109	-15.166742	0.000000	-5.500212	-2.224846	-1.382772	0.420121	0.007332	25.825527	-6.174845	0.000000	-0.155662	-0.023837	2.735880	-0.289079	-0.031704	2.906873	-0.255736	-0.057958	2.906873	-0.177906	-0.057958	2.393895	-0.144547	-0.048609	2.222903	-0.088945	-0.036924	2.051910	-1.111875	-0.269654	15.216146	0.000000	0.000000	-0.942608	-2.705024	2.003425	6.497213	-7.035598	52.176544	45.004258	39.024658	-1.939302	5.135415	21.849665	-6.412332	76.585176	37.028324	62.637280	17.854381	-0.378703
